<svg height="16" viewBox="0 0 16 16" width="16" xmlns="http://www.w3.org/2000/svg"><path d="m13.753906 4.660156c.175782-.199218.261719-.460937.246094-.726562-.019531-.265625-.140625-.511719-.339844-.6875-.199218-.175782-.460937-.261719-.726562-.246094-.265625.019531-.511719.140625-.6875.339844l-6.296875 7.195312-2.242188-2.242187c-.390625-.390625-1.023437-.390625-1.414062 0-.1875.1875-.292969.441406-.292969.707031s.105469.519531.292969.707031l3 3c.195312.195313.464843.304688.738281.292969.277344-.007812.539062-.132812.722656-.339844zm0 0" fill="#ffffff"/></svg>
