<svg height="16" viewBox="0 0 16 16" width="16" xmlns="http://www.w3.org/2000/svg"><path d="m8 0c-.257812 0-.511719.0976562-.707031.292969l-1.707031 1.707031h-2.585938c-.550781 0-1 .449219-1 1v2.585938l-1.707031 1.707031c-.3906252.390625-.3906252 1.023437 0 1.414062l1.707031 1.707031v2.585938c0 .550781.449219 1 1 1h2.585938l1.707031 1.707031c.390625.390625 1.023437.390625 1.414062 0l1.707031-1.707031h2.585938c.550781 0 1-.449219 1-1v-2.585938l1.707031-1.707031c.390625-.390625.390625-1.023437 0-1.414062l-1.707031-1.707031v-2.585938c0-.550781-.449219-1-1-1h-2.585938l-1.707031-1.707031c-.195312-.1953128-.449219-.292969-.707031-.292969zm-1 4h2v5h-2zm1 5.75c.6875 0 1.25.5625 1.25 1.25s-.5625 1.25-1.25 1.25-1.25-.5625-1.25-1.25.5625-1.25 1.25-1.25zm0 0" fill="#ff7800"/></svg>